Patient4_TMGait_0pt7_02_right_49_EMG.mot
version=1
nRows=40
nColumns=33
inDegrees=no
endheader
time	1LAddLong	2LGlutMax	3LGlutMed	4LIliopsoas	5LSemiMemb	6LBicFemLong	7LRecFem	8LVastMed	9LVastLat	10LGasMed	11LTibAnt	12lTibPost	13LPeroneusLong	14LSol	15LExtDigLong	16LFlexDigLong	17RAddLong	18RGlutMax	19RGlutMed	20RIliopsoas	21RSemiMemb	22RBicFemLong	23RRecFem	24RVastMed	25RVastLat	26RGasMed	27RTibAnt	28RTibPost	29RPeroneusLong	30RSol	31RExtDigLong	32RFlexDigLong
55.922	-0.00946	-0.20096	-0.25284	0.042267	0.014648	-0.015564	0.242	-0.001373	0.25482	-0.028381	-0.001373	-0.14725	-0.017548	-0.17258	-0.030518	0.007782	-0.032196	-0.16892	-0.49255	-0.001221	0.059357	-0.49744	-0.48614	0.23575	-0.40359	0.0354	0.092163	-0.27939	-1.3406	1.0088	-0.002289	-0.007782
55.923	-0.015106	-0.16693	-0.22766	0.050354	0.009155	-0.016937	0.26504	-0.000916	0.27344	0.053253	0.00351	-0.042267	-0.094452	0.45456	-0.020752	-0.030212	-0.041809	-0.17258	-0.14267	0.06958	-0.043335	-0.4953	-0.35019	0.14847	-0.55939	0.027466	0.088806	-0.35019	-0.51148	1.7053	0.000763	-0.010223
55.924	-0.009766	-0.15366	-0.18249	0.062408	0.018005	-0.01358	0.28336	0.00061	0.28214	0.013733	0.003204	0.10208	-0.112	0.29953	-0.00412	-0.015869	-0.023804	-0.29846	0.14633	0.066986	-0.10346	-0.625	-0.055084	0.037079	-0.62622	-0.045013	-0.10056	0.49347	0.46951	1.6321	-0.000763	-0.010376
55.925	-0.003815	-0.19669	-0.15869	0.062561	0.02182	-0.018616	0.26428	0.006409	0.29617	-0.007172	-0.000458	0.009308	-0.1207	0.24719	0.015717	-0.036621	-0.003815	-0.64011	0.13947	0.008698	-0.049133	-0.38315	0.11215	-0.049744	-0.48401	-0.02121	-0.21805	0.33768	0.94452	0.74051	-0.004272	0.010529
55.926	-0.01236	-0.25162	-0.16098	0.030975	0.022125	-0.067749	0.289	-0.005035	0.3096	-0.041199	0.004272	-0.12604	-0.1619	-0.13031	0.012512	-0.031281	0.005493	-0.70755	-0.57617	0.044403	0.066833	0.36392	0.063629	-0.011749	-0.23514	0.10956	-0.22201	-0.075378	1.4052	0.18494	-0.002747	0.002594
55.927	-0.001068	-0.25757	-0.1384	-0.005341	0.019989	-0.077515	0.31082	-0.005951	0.31235	-0.044098	0.004272	-0.063171	-0.17303	-0.10284	0.000763	-0.043945	0.03006	-0.58609	-0.70953	0.062256	0.081482	0.55115	-0.10071	-0.070343	-0.15854	0.073853	-0.1358	-0.008392	1.3165	-0.65811	-0.007019	0.00473
55.928	0.000305	-0.30945	-0.11429	0.008087	0.022278	-0.071259	0.31052	0.007324	0.31235	-0.053864	0.000153	-0.05188	-0.12985	0.18906	0.007935	-0.058136	0.11353	-0.47897	-0.37766	-0.000916	-0.18585	0.18005	-0.062256	-0.23499	-0.16617	0.016937	0.076599	0.011902	0.63263	-0.90378	-0.002899	0.008392
55.929	0.001221	-0.30884	-0.084381	0.031281	0.03006	-0.045471	0.30533	0.006256	0.3157	-0.049286	0.018616	-0.022736	-0.065918	0.37979	0.018158	-0.031128	0.18005	-0.49423	-0.67825	-0.058289	-0.50797	0.21179	-0.17868	-0.33386	-0.12985	0.035706	0.11032	0.039825	-0.81741	-0.89691	-0.004578	0.009308
55.93	-0.002136	-0.30991	-0.046387	0.054474	0.025787	-0.028381	0.3685	0.007172	0.30136	0.079803	0.000763	-0.006409	-0.038147	0.25177	-0.062561	-0.041046	0.24353	-0.47562	-0.16769	-0.056458	-0.47592	0.36819	-0.24277	-0.31769	0.009613	0.067596	-0.01297	0.003967	-1.268	-0.62195	-0.006409	0.010529
55.931	-0.023346	-0.28336	-0.03418	0.010681	0.021515	-0.02243	0.45456	0.012054	0.2977	0.067291	0.005646	-0.012817	-0.049744	0.14496	-0.017548	-0.014954	0.15427	-0.57327	-0.31799	-0.013885	-0.58563	0.50049	-0.042725	-0.32074	0.11871	0.061798	0.11719	-0.016937	-1.6357	-0.40497	-0.006714	0.005035
55.932	-0.018921	-0.26184	-0.018005	-0.064545	0.022736	0.00061	0.45746	0.017548	0.29129	0.020142	0.00824	-0.016327	-0.063019	0.18921	-0.000458	-0.006409	-0.043793	-0.44846	-0.62882	-0.1004	-0.42755	0.59235	0.24689	-0.10605	0.051117	0.012207	0.18799	-0.028381	-0.88882	-0.2655	-0.006561	0.004272
55.933	-0.019989	-0.22934	0.047913	-0.052795	0.025787	-0.008545	0.45792	0.02182	0.30838	0.032806	0.00946	0.000305	-0.080566	0.18524	0.016632	-0.014954	-0.15793	-0.38574	-0.68329	-0.22125	-0.15625	0.31067	0.38803	0.29068	0.031128	0.02655	0.15396	-0.035095	-0.17899	-0.29068	-0.002899	0.001373
55.934	-0.020142	-0.23575	0.084839	-0.000916	0.027466	-0.013733	0.44769	0.011749	0.30609	0.039215	-0.007782	0.005341	-0.077667	0.18005	0.019684	0.001984	-0.25635	-0.3389	-0.9996	-0.17227	0.30746	0.13657	0.32761	0.49149	0.089264	0.029297	0.11078	-0.028992	-0.3125	-0.31845	-0.004578	-0.007477
55.935	-0.018158	-0.26474	0.036926	0.014038	0.027771	-0.018158	0.40832	0.018921	0.30594	0.036316	-0.024719	0.000916	-0.070648	0.15381	-0.009766	0.003052	-0.19836	-0.298	-1.0805	-0.13702	0.38193	0.013123	0.45731	0.36743	0.061646	0.027924	-0.065918	-0.032043	0.12619	-0.32166	-0.002899	-0.003967
55.936	-0.022736	-0.23483	0.011902	0.007782	0.016479	-0.018463	0.33341	0.016174	0.31357	0.02533	-0.072937	0.001831	-0.097046	0.14771	-0.018463	-0.003662	-0.083923	-0.33066	-0.7045	-0.003357	0.14389	-0.5632	0.51407	0.35278	0.09552	0.007935	-0.019684	-0.051727	1.0036	-0.26215	-0.005035	-0.001068
55.937	-0.018463	-0.25513	0.004425	-0.004425	0.023193	-0.014343	0.20248	0.019989	0.30838	0.022888	-0.12909	0.002441	-0.1207	0.17716	-0.050659	0.001221	-0.040436	-0.39459	-0.50674	0.072327	0.20279	-0.97382	0.49805	0.26245	0.12436	-0.031891	0.096588	-0.054474	0.77698	-0.074158	-0.003967	-0.003357
55.938	-0.00946	-0.26459	0.003967	0.014343	0.021362	-0.007782	0.15503	0.016937	0.31281	-0.019073	-0.00946	-0.003662	-0.11749	0.23392	-0.071106	0.012207	-0.005493	-0.54718	-0.77194	0.14374	0.20691	-1.1752	0.43411	0.047607	0.45944	-0.089111	0.18295	-0.039673	0.44754	0.11932	-0.005035	-0.009308
55.939	-0.012817	-0.19424	0.059662	0.003815	0.018311	-0.00824	0.06424	0.016479	0.27985	-0.046997	0.17303	0.000458	-0.085907	0.2594	-0.024567	0.023499	-0.017853	-0.63721	-0.41718	0.084534	-0.072479	-0.92316	0.39841	-0.25742	0.59357	-0.056763	0.17471	-0.060272	-0.20554	-0.13397	-0.005493	-0.002899
55.94	-0.005341	-0.1796	0.066833	0.011444	0.012665	-0.006256	-0.013885	0.024109	0.24536	-0.083313	0.31555	0.000763	-0.027924	0.26138	0.074158	0.013885	-0.085602	-0.6247	-0.45761	0.056763	-0.072327	-0.64179	0.62332	-0.35507	0.43396	-0.011292	0.031738	-0.070343	-0.94681	-0.20294	-0.006714	0.002747
55.941	-0.013885	-0.19058	0.055847	-0.00946	0.018768	0.007019	0.1413	0.017395	0.22476	-0.080872	0.38849	0.006561	-0.078888	0.23636	0.094757	0.021057	-0.11826	-0.6546	-1.0918	0.14633	0.043335	-0.34485	0.72815	-0.1059	0.15167	0.0177	-0.070801	-0.091248	0.46951	-0.02594	-0.004883	0.006104
55.942	-0.010986	-0.1828	0.049591	-0.032501	0.019684	-0.007172	0.33447	0.016632	0.18249	-0.023804	0.11826	0.006409	-0.10681	0.19928	0.17303	0.017395	-0.084686	-0.69336	-1.4722	0.12894	0.60852	-0.32944	0.5777	0.26428	-0.076294	0.090637	-0.10452	0.041809	2.8539	-0.019226	-0.001984	-0.002747
55.943	-0.004272	-0.17273	0.057526	-0.041046	0.02121	-0.000763	0.47409	0.018616	0.18112	0.18677	0.18951	-0.00824	-0.13229	0.13062	0.15427	0.024719	-0.046082	-0.83283	-1.5839	0.060272	0.4393	-0.15823	0.58166	0.35187	-0.25345	0.10315	0.060272	0.18066	0.31784	-0.3685	-0.006714	-0.010681
55.944	-0.012512	-0.097809	0.063477	-0.027313	0.019531	-0.010071	0.6015	0.022125	0.15289	0.042419	0.099792	-0.010834	-0.18234	0.057831	0.45715	0.020447	-0.019226	-0.99167	-1.714	0.095673	0.006714	0.20111	0.73807	0.37094	-0.4747	-0.005493	0.20477	0.02182	-1.3155	-0.31403	-0.006866	-0.014191
55.945	-0.015564	-0.046082	0.091858	-0.020447	0.016785	0.002441	0.58655	0.019989	0.15732	-0.074921	-0.018005	-0.005341	-0.12329	0.11551	0.71274	0.028076	0.005493	-1.066	-1.4357	-0.05661	-0.18127	0.51209	0.92438	0.41916	-0.64255	-0.032349	0.20065	-0.066528	-0.59372	0.11704	-0.009766	-0.021362
55.946	-0.005798	-0.035706	0.12146	-0.002747	0.014801	0.02121	0.51712	0.016937	0.12619	-0.14679	-0.32913	0.00473	0.064545	0.168	-0.051575	0.032043	0.062866	-1.1633	-0.61539	-0.25238	0.006409	0.88776	0.5545	0.21866	-0.63736	0.026398	0.15671	-0.09079	0.79346	0.31662	-0.008087	-0.015717
55.947	-0.00946	-0.026855	0.15503	0.018616	0.011139	0.024109	0.44022	0.01236	0.1326	-0.15427	-0.19363	0.006104	0.10757	0.21774	0.13489	0.043488	0.023956	-1.2593	-1.2607	-0.084076	0.33341	1.2601	0.046692	-0.087738	-0.47501	-0.001831	0.21835	-0.10773	0.005951	0.53543	-0.008392	-0.01236
55.948	-0.014801	-0.063477	0.15976	0.04364	0.011902	0.018768	0.26566	0.009155	0.12787	-0.13763	-0.097351	0.009918	0.054169	0.26199	-0.43869	0.037079	-0.016785	-1.257	-0.42267	-0.022888	0.092468	1.264	0.13611	0.065002	-0.21973	-0.076294	0.26749	0.045013	-0.56381	0.34027	-0.00824	-0.023804
55.949	-0.014801	-0.10635	0.1915	0.032043	0.00946	-0.018616	0.11169	0.012512	0.14801	-0.11597	-0.18951	-0.00473	0.026245	0.24979	-1.0738	0.02182	-0.053864	-1.0483	-0.3392	0.029907	-0.18372	0.72922	0.10819	0.12985	-0.079041	-0.066528	0.15076	0.061188	-0.83221	0.20416	-0.007629	-0.019836
55.95	-0.011292	-0.11398	0.22125	-0.011444	0.008087	-0.008545	0.090942	0.01297	0.14389	-0.069122	-0.17242	-0.00412	-0.037231	0.14221	-0.46204	0.01358	-0.067444	-0.87189	0.012817	0.007782	-0.242	0.42313	-0.025787	0.071716	0.047913	-0.040894	-0.027466	-0.036163	-2.6242	0.25757	-0.007172	0.003357
55.951	-0.00351	-0.12985	0.23254	-0.036926	0.009003	-0.023956	0.071564	0.014038	0.11597	-0.12268	-0.3952	-0.000458	-0.062714	0.10117	-0.62103	0.014343	-0.037384	-0.70816	-0.083466	-0.027008	0.026245	0.11307	0.1445	0.090942	0.093536	-0.20828	-0.019226	0.019836	-0.62943	0.13428	-0.005493	0.003815
55.952	-0.000458	-0.10849	0.24597	-0.024872	0.023041	-0.03067	-0.036316	0.013885	0.093994	-0.10971	-0.26611	-0.005035	-0.060883	0.11673	0.32852	0.02655	-0.007935	-0.69595	-0.57999	-0.09491	0.24078	-0.36316	0.28915	-0.034637	0.075836	-0.12634	-0.32593	0.019989	2.2958	0.16998	-0.008698	0.002289
55.953	0.013275	-0.089569	0.27542	-0.014496	0.020142	-0.040894	-0.00412	0.018005	0.074005	-0.11078	0.004883	-0.000153	-0.055389	0.1973	0.20203	0.031128	0.032959	-0.62454	-0.70496	-0.097351	0.23377	-0.78323	0.3775	-0.13214	0.050201	-0.13123	-0.27359	-0.13489	2.1809	0.16724	-0.007629	0.005188
55.954	0.008087	-0.12375	0.29114	-0.000305	0.016174	-0.018158	-0.029755	0.008392	0.038757	-0.096893	0.12299	-0.005646	-0.10361	0.073853	-0.079346	0.033569	0.046844	-0.52933	-0.9581	0.057983	0.13382	-1.041	0.457	-0.17654	0.048523	-0.1619	-0.13001	-0.16846	1.6548	-0.097809	-0.007782	-0.007477
55.955	-0.004578	-0.075989	0.30304	0.000153	0.019836	-0.036163	-0.036774	0.020294	-0.00061	-0.098114	0.039215	0.007782	-0.075073	-0.059052	-0.3627	0.034485	0.016479	-0.47653	-1.0391	0.13443	-0.097198	-1.0242	0.29465	-0.03952	0.054779	-0.042725	-0.02655	0.24887	0.55191	-0.34119	-0.00885	-0.007935
55.956	-0.007019	-0.044708	0.29633	0.022736	0.022583	-0.016327	-0.037689	0.024719	-0.036011	-0.0914	-0.24765	0.017548	-0.05127	-0.026703	-0.52673	0.020447	-0.006866	-0.48065	-1.3823	0.024719	0.039063	-0.96725	0.10452	0.13565	0.068054	0.018768	-0.023499	0.14481	-1.1919	-0.54855	-0.009766	-0.019684
55.957	-0.00824	0.01297	0.31555	0.023041	0.019989	0.010223	-0.062714	0.000458	-0.079041	-0.094757	-0.23056	0.001526	-0.045624	0.03006	0.14236	0.007019	-0.005493	-0.42541	-1.7033	-0.030365	0.10376	-0.63263	-0.15121	0.17838	0.070648	0.07431	-0.07782	0.10376	-2.3578	-0.21896	-0.002136	-0.027161
55.958	-0.007019	0.034637	0.31052	-0.011444	0.025635	0.003815	-0.072327	0.011902	-0.13519	-0.075836	-0.040741	-0.001068	-0.075073	0.054779	0.17197	0.006409	0.038147	-0.58594	-1.5926	-0.15976	0.14725	-0.38025	-0.18219	0.22858	0.11658	0.11124	-0.022583	0.040894	-0.96817	-0.27741	-0.006256	-0.019379
55.959	-0.002289	0.11337	0.33905	-0.005341	0.019836	0.020142	-0.21072	0.012207	-0.17227	-0.072174	-0.029297	-0.001526	-0.083618	0.056458	0.002289	0.021515	0.11169	-0.64301	-1.6133	-0.39841	0.026703	-0.34042	-0.067291	0.30319	0.050964	0.12512	0.040741	-0.004578	0.90851	-0.12253	-0.005798	-0.019379
55.96	0.003204	0.19287	0.34454	-0.014648	0.015411	0.022736	-0.18539	0.001526	-0.16861	-0.089874	-0.14069	-0.000763	-0.062256	0.041656	0.20111	0.001831	0.15595	-0.5867	-0.9903	-0.25528	-0.45624	-0.053558	-0.22583	-0.050812	-0.112	0.11169	0.16892	-0.02655	0.46051	0.23361	-0.00824	-0.009766
55.961	0.002136	0.27695	0.36377	-0.016022	0.020599	-0.010681	0.003967	0.021667	-0.13992	-0.12344	-0.17593	0.009308	-0.027313	0.016785	0.062866	-0.009003	0.10223	-0.41367	-0.9021	0.057526	-0.71564	-0.088501	-0.17014	-0.20172	-0.12268	0.10666	0.13672	-0.035706	0.31784	0.14343	-0.007782	-0.013733
